HIERARCHY
ROOT Hips
{
	OFFSET 0.000000 100.481300 0.000000
	CHANNELS 6 Xposition Yposition Zposition Xrotation Yrotation Zrotation
	JOINT Spine
	{
		OFFSET -0.279200 12.230698 -2.892100
		CHANNELS 3 Xrotation Yrotation Zrotation
		JOINT Spine1
		{
			OFFSET -0.325700 14.269203 -3.374200
			CHANNELS 3 Xrotation Yrotation Zrotation
			JOINT Spine2
			{
				OFFSET -0.372300 16.307602 -0.352600
				CHANNELS 3 Xrotation Yrotation Zrotation
				JOINT Neck
				{
					OFFSET -0.418800 17.814194 8.416900
					CHANNELS 3 Xrotation Yrotation Zrotation
					JOINT Head
					{
						OFFSET 0.000000 7.031097 3.806800
						CHANNELS 3 Xrotation Yrotation Zrotation
						JOINT HeadTop_End
						{
							OFFSET 0.000000 24.646606 12.978600
							CHANNELS 3 Xrotation Yrotation Zrotation
							End Site
							{
								OFFSET 0.000000 27.854965 0.000000
							}
						}
					}
				}
				JOINT LeftShoulder
				{
					OFFSET 16.952999 14.495407 -7.737500
					CHANNELS 3 Xrotation Yrotation Zrotation
					JOINT LeftArm
					{
						OFFSET 9.308998 -2.777710 0.208600
						CHANNELS 3 Xrotation Yrotation Zrotation
						JOINT LeftForeArm
						{
							OFFSET 29.972298 0.000000 0.000000
							CHANNELS 3 Xrotation Yrotation Zrotation
							JOINT LeftHand
							{
								OFFSET 26.026505 0.000000 0.000000
								CHANNELS 3 Xrotation Yrotation Zrotation
								JOINT LeftHandThumb1
								{
									OFFSET 12.240501 -7.147949 9.207150
									CHANNELS 3 Xrotation Yrotation Zrotation
									JOINT LeftHandThumb2
									{
										OFFSET 4.138618 -2.389435 2.389433
										CHANNELS 3 Xrotation Yrotation Zrotation
										JOINT LeftHandThumb3
										{
											OFFSET 2.726913 -1.574387 1.574386
											CHANNELS 3 Xrotation Yrotation Zrotation
											JOINT LeftHandThumb4
											{
												OFFSET 3.941010 -2.275345 2.275342
												CHANNELS 3 Xrotation Yrotation Zrotation
												End Site
												{
													OFFSET -0.005798 5.087799 0.009903
												}
											}
										}
									}
								}
								JOINT LeftHandIndex1
								{
									OFFSET 24.424698 -1.985611 5.953459
									CHANNELS 3 Xrotation Yrotation Zrotation
									JOINT LeftHandIndex2
									{
										OFFSET 6.426697 0.000000 0.000000
										CHANNELS 3 Xrotation Yrotation Zrotation
										JOINT LeftHandIndex3
										{
											OFFSET 5.337898 0.000000 0.000000
											CHANNELS 3 Xrotation Yrotation Zrotation
											JOINT LeftHandIndex4
											{
												OFFSET 4.409401 0.000000 0.000000
												CHANNELS 3 Xrotation Yrotation Zrotation
												End Site
												{
													OFFSET 0.000000 4.409363 0.014373
												}
											}
										}
									}
								}
								JOINT LeftHandMiddle1
								{
									OFFSET 23.810104 0.000000 0.000000
									CHANNELS 3 Xrotation Yrotation Zrotation
									JOINT LeftHandMiddle2
									{
										OFFSET 7.176498 0.000000 0.000000
										CHANNELS 3 Xrotation Yrotation Zrotation
										JOINT LeftHandMiddle3
										{
											OFFSET 6.774902 0.000000 0.000000
											CHANNELS 3 Xrotation Yrotation Zrotation
											JOINT LeftHandMiddle4
											{
												OFFSET 5.403328 0.000000 0.000000
												CHANNELS 3 Xrotation Yrotation Zrotation
												End Site
												{
													OFFSET -0.027702 5.403244 0.017414
												}
											}
										}
									}
								}
								JOINT LeftHandRing1
								{
									OFFSET 22.908401 -0.839279 -6.020567
									CHANNELS 3 Xrotation Yrotation Zrotation
									JOINT LeftHandRing2
									{
										OFFSET 6.337502 0.000000 0.000000
										CHANNELS 3 Xrotation Yrotation Zrotation
										JOINT LeftHandRing3
										{
											OFFSET 5.779297 0.000000 0.000000
											CHANNELS 3 Xrotation Yrotation Zrotation
											JOINT LeftHandRing4
											{
												OFFSET 4.965698 0.000000 0.000000
												CHANNELS 3 Xrotation Yrotation Zrotation
												End Site
												{
													OFFSET 0.000000 4.965668 0.016186
												}
											}
										}
									}
								}
								JOINT LeftHandPinky1
								{
									OFFSET 20.037003 -1.530319 -10.950146
									CHANNELS 3 Xrotation Yrotation Zrotation
									JOINT LeftHandPinky2
									{
										OFFSET 5.254700 0.000000 0.000000
										CHANNELS 3 Xrotation Yrotation Zrotation
										JOINT LeftHandPinky3
										{
											OFFSET 4.810204 0.000000 0.000000
											CHANNELS 3 Xrotation Yrotation Zrotation
											JOINT LeftHandPinky4
											{
												OFFSET 3.647202 0.000000 0.000000
												CHANNELS 3 Xrotation Yrotation Zrotation
												End Site
												{
													OFFSET 0.000000 3.647186 0.011889
												}
											}
										}
									}
								}
							}
						}
					}
				}
				JOINT RightShoulder
				{
					OFFSET -15.141001 14.495407 -7.737500
					CHANNELS 3 Xrotation Yrotation Zrotation
					JOINT RightArm
					{
						OFFSET -9.308998 -2.777710 0.208500
						CHANNELS 3 Xrotation Yrotation Zrotation
						JOINT RightForeArm
						{
							OFFSET -29.972300 0.000000 0.000000
							CHANNELS 3 Xrotation Yrotation Zrotation
							JOINT RightHand
							{
								OFFSET -26.026505 0.000000 0.000000
								CHANNELS 3 Xrotation Yrotation Zrotation
								JOINT RightHandThumb1
								{
									OFFSET -12.240601 -7.148026 9.207092
									CHANNELS 3 Xrotation Yrotation Zrotation
									JOINT RightHandThumb2
									{
										OFFSET -4.138618 -2.389435 2.389433
										CHANNELS 3 Xrotation Yrotation Zrotation
										JOINT RightHandThumb3
										{
											OFFSET -2.726974 -1.574417 1.574421
											CHANNELS 3 Xrotation Yrotation Zrotation
											JOINT RightHandThumb4
											{
												OFFSET -3.941010 -2.275345 2.275343
												CHANNELS 3 Xrotation Yrotation Zrotation
												End Site
												{
													OFFSET 0.005814 5.087799 0.009927
												}
											}
										}
									}
								}
								JOINT RightHandIndex1
								{
									OFFSET -24.424698 -1.985657 5.953444
									CHANNELS 3 Xrotation Yrotation Zrotation
									JOINT RightHandIndex2
									{
										OFFSET -6.426697 0.000000 0.000000
										CHANNELS 3 Xrotation Yrotation Zrotation
										JOINT RightHandIndex3
										{
											OFFSET -5.337898 0.000000 0.000000
											CHANNELS 3 Xrotation Yrotation Zrotation
											JOINT RightHandIndex4
											{
												OFFSET -4.409401 0.000000 0.000000
												CHANNELS 3 Xrotation Yrotation Zrotation
												End Site
												{
													OFFSET 0.000000 4.409363 0.014408
												}
											}
										}
									}
								}
								JOINT RightHandMiddle1
								{
									OFFSET -23.810097 0.000000 0.000000
									CHANNELS 3 Xrotation Yrotation Zrotation
									JOINT RightHandMiddle2
									{
										OFFSET -7.176498 0.000000 0.000000
										CHANNELS 3 Xrotation Yrotation Zrotation
										JOINT RightHandMiddle3
										{
											OFFSET -6.774902 0.000000 0.000000
											CHANNELS 3 Xrotation Yrotation Zrotation
											JOINT RightHandMiddle4
											{
												OFFSET -5.403328 0.000000 0.000000
												CHANNELS 3 Xrotation Yrotation Zrotation
												End Site
												{
													OFFSET 0.027702 5.403244 0.017457
												}
											}
										}
									}
								}
								JOINT RightHandRing1
								{
									OFFSET -22.908302 -0.839325 -6.020576
									CHANNELS 3 Xrotation Yrotation Zrotation
									JOINT RightHandRing2
									{
										OFFSET -6.337502 0.000000 0.000000
										CHANNELS 3 Xrotation Yrotation Zrotation
										JOINT RightHandRing3
										{
											OFFSET -5.779297 0.000000 0.000000
											CHANNELS 3 Xrotation Yrotation Zrotation
											JOINT RightHandRing4
											{
												OFFSET -4.965698 0.000000 0.000000
												CHANNELS 3 Xrotation Yrotation Zrotation
												End Site
												{
													OFFSET 0.000000 4.965668 0.016226
												}
											}
										}
									}
								}
								JOINT RightHandPinky1
								{
									OFFSET -20.037003 -1.530334 -10.950259
									CHANNELS 3 Xrotation Yrotation Zrotation
									JOINT RightHandPinky2
									{
										OFFSET -5.254700 0.000000 0.000000
										CHANNELS 3 Xrotation Yrotation Zrotation
										JOINT RightHandPinky3
										{
											OFFSET -4.810204 0.000000 0.000000
											CHANNELS 3 Xrotation Yrotation Zrotation
											JOINT RightHandPinky4
											{
												OFFSET -3.647202 0.000000 0.000000
												CHANNELS 3 Xrotation Yrotation Zrotation
												End Site
												{
													OFFSET 0.000000 3.647186 0.011917
												}
											}
										}
									}
								}
							}
						}
					}
				}
			}
		}
	}
	JOINT LeftUpLeg
	{
		OFFSET 15.427100 -6.655098 0.678600
		CHANNELS 3 Xrotation Yrotation Zrotation
		JOINT LeftLeg
		{
			OFFSET 4.081073 -39.591068 13.024000
			CHANNELS 3 Xrotation Yrotation Zrotation
			JOINT LeftFoot
			{
				OFFSET -4.081074 -37.707932 -15.979700
				CHANNELS 3 Xrotation Yrotation Zrotation
				JOINT LeftToeBase
				{
					OFFSET 5.346399 -15.068900 20.645000
					CHANNELS 3 Xrotation Yrotation Zrotation
					JOINT LeftToe_End
					{
						OFFSET 2.754700 0.931300 11.300900
						CHANNELS 3 Xrotation Yrotation Zrotation
						End Site
						{
							OFFSET 0.000000 11.669021 0.000000
						}
					}
				}
			}
		}
	}
	JOINT RightUpLeg
	{
		OFFSET -15.569500 -6.655098 0.678600
		CHANNELS 3 Xrotation Yrotation Zrotation
		JOINT RightLeg
		{
			OFFSET -4.081825 -39.591045 13.023800
			CHANNELS 3 Xrotation Yrotation Zrotation
			JOINT RightFoot
			{
				OFFSET 4.081824 -37.707954 -15.979600
				CHANNELS 3 Xrotation Yrotation Zrotation
				JOINT RightToeBase
				{
					OFFSET -5.346400 -15.068900 20.645000
					CHANNELS 3 Xrotation Yrotation Zrotation
					JOINT RightToe_End
					{
						OFFSET -2.754700 0.931300 11.300900
						CHANNELS 3 Xrotation Yrotation Zrotation
						End Site
						{
							OFFSET 0.000000 11.669021 0.000000
						}
					}
				}
			}
		}
	}
}
MOTION
Frames: 4
Frame Time: 0.033333
-0.292000 90.699348 -0.824555 -2.628651 -10.605250 2.347815 1.168551 -1.009409 -2.098714 0.100817 -0.894437 -0.734852 0.107629 -0.919353 -0.703790 -2.762183 1.667712 3.963575 3.527685 14.246808 -2.077170 0.000000 0.000000 0.000000 0.562321 3.553254 -9.740908 58.666947 -59.500715 -12.645401 0.000004 -23.134453 0.000023 -25.696024 -5.758558 1.908843 -14.736119 22.603220 6.590240 7.443481 15.382319 -1.194386 1.132783 5.313366 1.863147 0.000001 -0.000001 0.000000 0.401000 2.319621 -19.612461 0.105482 1.203045 -10.021307 0.026419 0.603835 -5.010097 -0.000001 0.000002 -0.000002 0.400340 2.317808 -19.596460 0.105821 1.204953 -10.037277 0.026401 0.603834 -5.010095 0.000001 -0.000001 -0.000001 0.401000 2.319621 -19.612460 0.105479 1.203046 -10.021306 0.026419 0.603837 -5.010097 0.000003 0.000000 0.000000 1.751570 6.143736 -19.201757 0.098231 -2.852195 -10.524259 0.026412 0.603849 -5.010093 -0.000001 0.000001 -0.000000 4.312267 11.210242 8.018931 11.518725 41.103587 59.099899 -0.000002 23.033718 0.000024 -9.619308 -9.349761 4.688232 4.342460 -19.025603 -16.436206 12.582702 -15.474280 3.383281 2.512277 -3.445682 -0.976291 -0.000001 -0.000003 -0.000004 0.104991 -1.206170 9.948722 0.274615 -1.938518 16.124760 0.068973 -0.978928 8.060057 0.000002 0.000000 -0.000001 0.104992 -1.206170 9.948719 0.274613 -1.938519 16.124755 0.068970 -0.978924 8.060055 -0.000001 -0.000001 0.000002 0.104989 -1.206170 9.948718 0.274618 -1.938521 16.124757 0.068973 -0.978926 8.060058 -0.000004 0.000001 0.000000 0.104991 -1.206170 9.948719 0.274618 -1.938521 16.124755 0.068973 -0.978927 8.060055 0.000002 -0.000002 -0.000004 -14.189114 10.950743 8.394450 26.407116 8.419163 2.675899 -6.741766 6.593053 -11.658686 -0.000056 0.000002 0.000003 -0.000000 -0.000002 -0.000000 -3.591381 -11.421753 -5.270152 28.853950 -8.519611 -1.029888 -21.743296 -12.720749 5.696568 -0.000026 0.000019 -0.000004 0.000000 -0.000000 -0.000000 
-0.370355 90.664047 -0.745884 -2.741459 -10.459814 2.406494 1.070800 -1.049070 -1.962304 0.032111 -0.925554 -0.685054 0.038791 -0.949200 -0.653235 -2.903683 1.684316 3.925781 2.845715 14.223675 -1.742653 0.000000 0.000000 -0.000000 0.576198 3.621586 -10.043860 58.690900 -59.262778 -12.779382 -0.000000 -23.136238 0.000003 -25.486660 -5.689282 1.812080 -14.736114 22.603220 6.590240 7.443481 15.382319 -1.194382 1.132780 5.313366 1.863146 -0.000001 0.000001 0.000001 0.401002 2.319621 -19.612461 0.105484 1.203045 -10.021308 0.026419 0.603835 -5.010095 0.000003 -0.000000 -0.000003 0.400340 2.317807 -19.596460 0.105824 1.204955 -10.037275 0.026401 0.603834 -5.010094 0.000001 0.000001 -0.000000 0.401002 2.319621 -19.612461 0.105482 1.203045 -10.021305 0.026417 0.603839 -5.010093 0.000001 0.000001 -0.000000 1.751572 6.143736 -19.201760 0.098230 -2.852195 -10.524259 0.026412 0.603843 -5.010094 0.000004 0.000000 -0.000002 4.325624 11.205724 7.853900 11.319926 40.938081 59.337651 0.000018 22.777706 -0.000014 -9.780272 -9.243984 4.709195 4.342465 -19.025601 -16.436210 12.582706 -15.474280 3.383277 2.512276 -3.445685 -0.976295 0.000000 0.000000 0.000000 0.104990 -1.206168 9.948719 0.274617 -1.938518 16.124760 0.068973 -0.978928 8.060059 -0.000000 0.000000 -0.000000 0.104991 -1.206168 9.948719 0.274617 -1.938518 16.124758 0.068981 -0.978927 8.060055 0.000000 0.000001 -0.000001 0.104990 -1.206168 9.948717 0.274613 -1.938520 16.124760 0.068972 -0.978925 8.060062 0.000004 0.000000 -0.000001 0.104990 -1.206168 9.948719 0.274619 -1.938521 16.124758 0.068973 -0.978927 8.060059 -0.000000 -0.000001 -0.000001 -14.031200 10.820455 8.324495 26.422054 8.397730 2.683131 -6.777639 6.577776 -11.720193 -0.000056 0.000003 0.000003 0.000000 -0.000000 -0.000000 -3.390562 -11.314943 -5.199050 28.917891 -8.527572 -1.122830 -21.888876 -13.014443 5.699718 -0.000026 0.000019 -0.000004 0.000000 -0.000000 -0.000000 
-0.413548 90.625153 -0.622135 -2.867364 -10.313751 2.442386 0.992179 -1.076115 -1.850683 -0.023110 -0.947813 -0.645542 -0.016673 -0.970401 -0.613246 -3.080734 1.691983 3.930646 2.070801 14.221051 -1.412480 -0.000000 0.000000 -0.000000 0.585953 3.643508 -10.229702 59.129016 -59.120915 -12.484637 -0.000012 -23.152217 0.000004 -25.851622 -5.682647 1.738870 -14.736116 22.603217 6.590241 7.443485 15.382317 -1.194381 1.132778 5.313363 1.863144 -0.000001 0.000002 0.000002 0.401001 2.319622 -19.612460 0.105483 1.203045 -10.021307 0.026419 0.603833 -5.010097 0.000003 -0.000002 -0.000001 0.400341 2.317806 -19.596458 0.105822 1.204954 -10.037276 0.026400 0.603830 -5.010099 -0.000001 -0.000001 0.000000 0.401001 2.319622 -19.612460 0.105481 1.203046 -10.021306 0.026419 0.603839 -5.010094 0.000000 -0.000001 -0.000001 1.751570 6.143735 -19.201754 0.098231 -2.852195 -10.524261 0.026410 0.603842 -5.010094 0.000001 0.000000 -0.000001 4.315137 11.133102 7.836172 11.329304 40.857614 59.325439 0.000000 22.670511 -0.000010 -10.026614 -9.174967 4.683794 4.342469 -19.025600 -16.436208 12.582709 -15.474282 3.383281 2.512275 -3.445684 -0.976290 0.000001 0.000001 0.000002 0.104994 -1.206169 9.948720 0.274617 -1.938517 16.124760 0.068970 -0.978926 8.060059 0.000004 -0.000001 -0.000000 0.104995 -1.206169 9.948719 0.274614 -1.938518 16.124758 0.068975 -0.978925 8.060054 0.000001 0.000000 0.000001 0.104994 -1.206168 9.948720 0.274618 -1.938520 16.124758 0.068969 -0.978926 8.060060 -0.000001 0.000002 0.000003 0.104994 -1.206169 9.948719 0.274619 -1.938521 16.124758 0.068975 -0.978925 8.060056 0.000000 -0.000001 0.000001 -13.855431 10.754438 8.252891 26.476279 8.385471 2.714690 -6.879766 6.514993 -11.773266 -0.000056 0.000002 0.000003 -0.000000 0.000000 0.000000 -3.122672 -11.138690 -5.154830 28.955948 -8.512439 -1.132943 -22.039043 -13.383039 5.684827 -0.000026 0.000020 -0.000004 -0.000000 -0.000000 -0.000000 
-0.421477 90.591461 -0.456767 -2.982464 -10.189036 2.456227 0.925365 -1.086016 -1.764925 -0.071009 -0.957587 -0.614582 -0.064859 -0.979373 -0.582175 -3.306538 1.678141 4.004770 1.167878 14.217831 -1.095554 0.000000 -0.000000 -0.000000 0.586759 3.642473 -10.245338 59.947259 -59.139855 -11.813811 -0.000001 -23.165447 -0.000007 -26.719662 -5.738904 1.703905 -14.736123 22.603220 6.590240 7.443479 15.382315 -1.194382 1.132780 5.313365 1.863142 -0.000002 0.000002 0.000002 0.401000 2.319618 -19.612461 0.105481 1.203043 -10.021306 0.026416 0.603833 -5.010098 0.000003 0.000002 -0.000000 0.400337 2.317805 -19.596460 0.105822 1.204953 -10.037275 0.026400 0.603831 -5.010096 -0.000003 -0.000000 -0.000001 0.401000 2.319618 -19.612461 0.105479 1.203042 -10.021304 0.026412 0.603839 -5.010096 0.000001 0.000002 0.000001 1.751569 6.143735 -19.201759 0.098230 -2.852194 -10.524259 0.026411 0.603845 -5.010091 0.000000 0.000001 -0.000001 4.283642 11.006159 7.964103 11.520772 40.858946 59.093171 -0.000007 22.652683 0.000017 -10.285819 -9.152959 4.664258 4.342462 -19.025600 -16.436206 12.582711 -15.474279 3.383283 2.512281 -3.445686 -0.976293 0.000000 0.000000 0.000002 0.104991 -1.206168 9.948720 0.274620 -1.938520 16.124760 0.068972 -0.978929 8.060056 0.000001 0.000002 -0.000000 0.104992 -1.206167 9.948720 0.274617 -1.938521 16.124757 0.068974 -0.978924 8.060059 -0.000003 -0.000002 -0.000001 0.104987 -1.206168 9.948717 0.274616 -1.938521 16.124760 0.068976 -0.978926 8.060059 -0.000000 -0.000001 -0.000000 0.104991 -1.206168 9.948720 0.274622 -1.938523 16.124757 0.068979 -0.978928 8.060050 0.000005 -0.000000 0.000001 -13.676876 10.756575 8.158494 26.552806 8.405663 2.820741 -7.034857 6.420591 -11.849001 -0.000056 0.000003 0.000003 -0.000000 0.000002 0.000000 -2.813974 -10.962232 -5.178865 28.947332 -8.448228 -1.012667 -22.186182 -13.728019 5.628374 -0.000026 0.000019 -0.000004 -0.000000 -0.000000 0.000000 
